<svg width="1418" height="1131" viewBox="0 0 1418 1131" fill="none" xmlns="http://www.w3.org/2000/svg">
<path d="M577.992 12.5647C580.406 8.50931 584.508 4.10229 587.109 2.76611C589.711 1.4065 595.805 0.234416 600.633 0.164091C607.172 0.0468833 611.133 1.64091 616.125 6.44645C620.789 10.9238 623.602 16.8311 625.383 25.7858C626.789 32.8652 634.945 81.9285 643.547 134.789C652.125 187.65 659.695 236.69 660.328 243.793C661.289 254.435 660.633 257.811 656.555 263.132C653.836 266.672 647.648 270.751 642.82 272.204C635.625 274.337 632.648 274.126 626.414 271.032C622.219 268.946 617.25 264.867 615.352 261.96C613.336 258.866 603.984 207.74 573.586 19.9254L577.992 12.5647Z" fill="#133020"/>
<path d="M811.758 11.7208C813.258 9.7986 816.516 6.35268 818.977 4.10229C821.813 1.52371 827.227 0 833.625 0C841.805 0 845.18 1.38306 850.828 7.03249C854.93 11.1348 857.977 16.7373 858.141 20.5114C858.281 24.0511 858.281 27.7549 858.141 28.716C857.977 29.6771 850.945 80.311 842.508 141.236C834.047 202.161 825.891 255.092 824.344 258.889C822.797 262.687 818.367 267.68 814.5 270.024C810.633 272.345 805.102 274.244 802.195 274.267C799.289 274.267 794.016 272.837 790.477 271.079C786.938 269.321 782.18 264.047 779.93 259.358C775.875 250.943 776.062 249.185 792.422 133.031C801.562 68.2386 810.258 13.6665 811.758 11.7208Z" fill="#133020"/>
<path d="M1009.1 146.721C1018.08 132.68 1027.97 119.224 1031.06 116.833C1034.3 114.372 1040.55 112.52 1045.71 112.52C1052.37 112.52 1056.73 114.301 1062.35 119.365C1068.77 125.131 1069.95 127.804 1069.85 136.36C1069.76 145.502 1065.09 153.754 1022.98 219.015C991.969 267.094 973.852 292.997 969.188 295.904C964.359 298.904 959.578 299.889 953.953 299.068C948.844 298.318 943.336 295.2 939.305 290.747C934.734 285.707 932.836 281.089 932.789 274.853C932.719 267.539 937.711 258.233 962.742 219.179C979.242 193.393 1000.13 160.786 1009.1 146.721Z" fill="#133020"/>
<path d="M368.156 158.63C368.32 152.136 370.219 147.776 375.047 142.806C380.273 137.462 383.789 135.961 391.266 135.961C396.539 135.961 402.586 136.758 404.719 137.72C406.875 138.681 413.203 145.549 418.781 152.957C424.383 160.364 428.953 166.951 428.953 167.608C428.953 168.241 433.5 175.367 439.078 183.431C444.633 191.495 459.398 213.108 471.891 231.486C491.227 259.968 494.578 266.273 494.578 274.267C494.578 281.323 492.891 285.519 487.734 291.262C481.969 297.685 479.273 298.881 470.531 298.881C464.719 298.881 458.297 297.334 455.953 295.365C453.656 293.419 439.523 274.056 424.547 252.302C409.57 230.525 390.703 202.583 382.617 190.182C370.734 171.921 367.969 165.896 368.156 158.63Z" fill="#133020"/>
<path d="M144.398 382.099C154.219 354.203 158.813 344.264 164.203 339.318C169.055 334.864 173.742 332.871 179.391 332.871C184.852 332.871 214.055 344.709 267.68 368.62C331.266 396.984 348.563 405.634 351.469 410.533C355.008 416.511 356.227 416.792 387.938 419.347C405.984 420.801 446.063 424.059 477 426.591C507.938 429.122 543.797 431.889 580.125 434.327L598.875 421.481C609.188 414.425 630.281 400.946 645.75 391.569C669.469 377.152 676.992 373.847 693.797 370.284C704.742 367.963 725.836 364.822 740.672 363.322C761.203 361.212 773.203 361.212 791.063 363.298C803.953 364.799 822.141 368.596 831.492 371.714C840.844 374.855 858.234 382.099 870.164 387.818C882.094 393.562 901.852 404.204 936.375 424.762L1048.88 414.964L1089.45 388.568C1111.78 374.058 1140.52 355.586 1153.31 347.522C1171.12 336.317 1178.67 332.871 1185.4 332.848C1190.23 332.848 1196.55 334.418 1199.46 336.364C1202.46 338.38 1215.23 360.439 1229.04 387.373C1242.4 413.487 1271.81 471.224 1294.38 515.716C1316.95 560.185 1354.15 634.049 1377.02 679.807C1414.22 754.211 1418.46 763.892 1417.1 771.23C1416.28 775.73 1414.29 780.935 1412.7 782.786C1411.1 784.615 1398.21 791.624 1384.03 798.328C1369.85 805.033 1331.34 822.919 1298.48 838.062C1248.19 861.199 1237.5 865.348 1231.1 864.105C1225.48 863.027 1220.88 859.276 1213.52 849.736C1207.92 842.469 1202.27 837.335 1200.63 838.015C1199.02 838.671 1182.87 850.017 1164.75 863.238C1140.42 880.96 1132.2 888.18 1133.39 890.782C1134.26 892.704 1136.46 899.033 1138.24 904.847C1140.05 910.661 1141.5 920.131 1141.48 925.944C1141.45 931.758 1140.45 940.174 1139.23 944.698C1138.01 949.199 1133.41 958.177 1129.01 964.623C1124.6 971.07 1115.84 979.837 1109.55 984.103C1103.25 988.37 1094.39 992.8 1089.89 993.949C1085.39 995.121 1076.25 996.363 1057.48 997.441L1054.92 1009.75C1053.52 1016.62 1048.5 1027.94 1043.6 1035.35C1038.77 1042.66 1030.59 1052.11 1025.44 1056.37C1020.28 1060.62 1010.53 1066.24 1003.76 1068.87C996.352 1071.73 986.109 1073.6 977.977 1073.56C970.57 1073.51 958.688 1071.42 951.609 1068.94C944.508 1066.45 937.922 1064.37 936.961 1064.32C936 1064.27 934.523 1067.67 933.68 1071.87C932.766 1076.46 927.398 1084.48 920.203 1092.05C913.617 1098.97 902.977 1107.31 896.531 1110.59C888.047 1114.93 879.961 1116.88 867.234 1117.63C853.242 1118.45 846.797 1117.63 835.594 1113.57C827.859 1110.78 819.422 1107.92 816.844 1107.24C813.914 1106.47 808.195 1108.67 801.609 1113.1C795.797 1117.02 784.734 1122.55 777 1125.36C765.867 1129.44 757.57 1130.54 737.156 1130.66C716.789 1130.8 707.93 1129.75 694.969 1125.67C685.945 1122.83 670.641 1116.52 643.406 1102.79L628.758 1110.48C616.102 1117.11 611.813 1118.17 597.117 1118.14C584.25 1118.12 577.266 1116.78 568.406 1112.66C561.961 1109.63 553.523 1104.52 549.656 1101.29C545.789 1098.05 539.977 1090.55 530.906 1073.84L513.328 1074C500.977 1074.14 491.906 1072.74 482.859 1069.36C475.758 1066.71 464.695 1059.89 458.25 1054.17C451.805 1048.47 443.883 1038.51 434.813 1020.25L414.891 1019.38C400.547 1018.75 392.016 1017.09 384.422 1013.38C378.609 1010.57 369.117 1003.72 363.305 998.168C357.516 992.612 350.391 983.048 347.484 976.93C344.602 970.812 342.234 964.998 342.258 964.037C342.281 963.076 336.211 961.623 328.781 960.826C321.352 960.029 310.008 956.747 303.563 953.535C297.117 950.324 287.32 942.541 281.789 936.235C275.391 928.945 270.117 919.662 267.258 910.707C264.773 902.972 262.453 893.056 262.055 888.696C261.422 881.171 259.852 879.882 205.125 848.892L199.266 855.432C196.031 859.042 190.242 862.722 186.375 863.637C181.055 864.879 164.789 860.894 119.578 847.274C86.6954 837.382 49.2657 826.247 36.375 822.52C18.3282 817.316 11.461 814.128 6.49224 808.736C2.25005 804.118 0.0234858 799.102 4.83087e-05 794.085C-0.0233892 789.889 8.48442 762.72 18.9141 733.723C29.3204 704.702 49.3125 648.794 63.3047 609.482C77.2969 570.147 98.4141 511.074 110.203 478.209C121.992 445.321 137.391 402.071 144.398 382.099Z" fill="#133020"/>
<path fill-rule="evenodd" clip-rule="evenodd" d="M199.899 393.75C202.782 394.852 219.352 402.236 236.766 410.159C254.18 418.083 276.094 427.928 285.469 432.03C298.594 437.797 302.532 440.61 302.461 444.22C302.414 446.799 300.914 457.347 299.11 467.662C297.305 477.976 292.055 501.722 287.485 520.405C282.891 539.088 273.727 570.219 267.141 589.558C260.532 608.897 250.547 636.324 244.946 650.506C239.344 664.689 227.532 692.115 218.719 711.455C209.883 730.794 195.844 759.182 187.5 774.559C179.133 789.914 171.258 803.932 169.969 805.69C168.047 808.292 158.039 806.042 114.891 793.242C85.8753 784.639 61.1018 776.716 59.8128 775.638C58.2893 774.348 58.8518 770.199 61.43 763.659C63.6097 758.15 74.8831 727.278 86.4612 695.045C98.0628 662.813 126.188 584.237 148.969 520.405C171.75 456.574 191.344 401.533 192.539 398.04C194.367 392.719 195.516 392.039 199.899 393.75ZM1175.51 394.477C1175.74 394.758 1196.79 436.133 1222.29 486.415C1247.77 536.697 1288.62 617.407 1313.06 665.743C1337.51 714.103 1356.63 754.353 1355.53 755.197C1354.45 756.064 1329.31 767.972 1299.66 781.639C1270.01 795.329 1245.21 805.877 1244.58 805.08C1243.95 804.283 1239.52 798.189 1234.78 791.531C1230.02 784.874 1217.18 764.667 1206.19 746.617C1195.22 728.567 1176.28 693.24 1164.12 668.088C1151.95 642.935 1137 609.718 1130.88 594.246C1124.77 578.775 1115.77 554.513 1110.89 540.331C1106.02 526.148 1098.26 501.629 1093.62 485.829C1089 470.029 1085.2 455.8 1085.2 454.183C1085.2 452.565 1091.27 447.431 1098.68 442.743C1106.09 438.055 1126.31 425.162 1143.61 414.074C1160.93 403.01 1175.27 394.172 1175.51 394.477V394.477ZM764.11 412.902C776.367 412.761 793.758 414.238 802.782 416.16C812.625 418.247 830.414 425.279 847.313 433.718C862.782 441.454 880.875 451.206 887.532 455.378C894.164 459.551 904.711 466.044 922.313 476.663L978.164 472.162C1015.05 469.185 1034.63 468.459 1035.77 470.006C1036.73 471.295 1039.9 481.305 1042.83 492.275C1045.73 503.246 1052.34 525.398 1057.55 541.503C1062.73 557.631 1072.05 584.002 1078.27 600.107C1084.48 616.235 1094.95 641.552 1101.56 656.367C1108.17 671.182 1121.25 698.093 1130.65 716.143C1140.02 734.193 1153.73 758.971 1161.09 771.231C1168.48 783.491 1173.66 794.133 1172.63 794.93C1171.59 795.704 1155.19 807.565 1136.18 821.302C1117.17 835.015 1100.55 846.244 1099.27 846.244C1097.98 846.244 1060.24 812.23 1015.41 770.645C970.571 729.059 911.766 675.003 884.719 650.506C857.649 626.01 824.11 595.958 810.188 583.698C796.266 571.461 780.469 558.474 775.078 554.864C769.688 551.231 759.469 546.613 752.391 544.574C742.711 541.784 733.688 541.198 716.063 542.183C703.172 542.909 687.352 545.113 680.907 547.058C674.461 549.004 666.141 553.036 662.391 556.013C658.664 558.99 652.711 567.242 649.196 574.321C645.68 581.424 639.258 592.465 634.899 598.888C630.563 605.334 621.61 616.399 615.024 623.502C608.414 630.628 597.352 639.512 590.414 643.286C581.391 648.186 573.422 650.459 562.547 651.256C554.18 651.842 544.407 651.678 540.867 650.835C537.328 650.014 532.828 647.74 530.907 645.818C528.985 643.896 527.414 638.34 527.438 633.511C527.461 628.682 529.641 619.985 532.242 614.172C534.867 608.358 542.227 598.349 548.625 591.902C560.18 580.228 560.25 580.064 564.914 553.81C567.469 539.299 571.664 521.906 574.196 515.131C576.821 508.122 582.633 499.167 587.672 494.362C592.547 489.697 603.399 480.719 611.766 474.366C620.133 468.037 641.227 453.995 658.641 443.189C678.352 430.929 695.133 422.255 703.172 420.192C710.25 418.364 721.875 416.043 728.953 415.012C736.032 413.98 751.852 413.043 764.11 412.902V412.902ZM357.117 467.216C359.883 467.873 400.125 471.342 446.532 474.905C492.938 478.445 531.235 481.445 531.633 481.539C532.032 481.656 529.758 489.111 526.594 498.136C523.407 507.161 519.094 523.5 516.985 534.47C514.313 548.395 511.524 556.154 507.703 560.256C504.703 563.491 498.375 571.93 493.664 579.009C488.953 586.112 482.977 598.771 480.399 607.139C477.844 615.508 475.758 627.909 475.782 634.683C475.805 641.458 477.914 652.522 480.446 659.297C483.188 666.634 489.117 675.589 495.094 681.449C500.602 686.864 510.399 693.615 516.844 696.405C524.039 699.546 535.36 701.937 546.141 702.617C556.969 703.273 570.024 702.359 580.125 700.203C589.149 698.28 602.344 693.967 609.422 690.615C616.5 687.263 628.641 679.316 636.375 672.987C644.11 666.658 655.852 654.796 662.461 646.615C669.071 638.434 679.36 623.572 685.313 613.586C693.399 600.036 697.782 594.997 702.586 593.731C706.125 592.793 716.016 592.019 724.547 591.973C737.414 591.926 741.492 592.91 748.313 597.763C752.86 600.998 773.297 618.485 793.735 636.652C814.172 654.82 864.703 700.695 906.024 738.623C947.344 776.529 1000.62 825.639 1024.38 847.721C1048.17 869.803 1071.59 892.213 1076.41 897.534C1081.24 902.832 1086.26 909.841 1087.55 913.053C1088.84 916.287 1089.89 922.078 1089.89 925.945C1089.89 930.259 1087.66 935.252 1084.15 938.838C1079.58 943.48 1076.06 944.699 1067.16 944.675C1060.05 944.652 1051.36 942.495 1043.6 938.815C1035.4 934.924 993.141 900.23 917.039 834.898C854.203 780.959 800.414 735.599 797.508 734.099C794.602 732.599 788.555 731.38 784.032 731.38C778.032 731.38 773.93 733.279 768.797 738.412C763.852 743.359 761.766 747.695 761.789 753.063C761.813 757.259 762.352 762.792 763.008 765.37C763.664 767.949 773.907 778.498 785.789 788.812C797.649 799.126 849.586 843.759 901.172 887.993C969.914 946.949 996.399 971.047 1000.29 978.244C1003.22 983.635 1005.59 990.433 1005.56 993.34C1005.54 996.247 1004.34 1000.98 1002.89 1003.89C1001.44 1006.8 997.477 1012.07 994.102 1015.63C990.703 1019.17 985.032 1022.6 981.492 1023.25C977.602 1023.93 970.196 1022.24 962.742 1018.94C955.969 1015.94 936.727 1001.99 919.969 987.972C903.211 973.977 888.328 961.389 886.899 960.053C885.469 958.693 843.961 922.781 794.625 880.234C745.313 837.688 702.727 801.588 699.961 800.04C697.219 798.47 691.547 797.134 687.352 797.11C682.571 797.04 677.11 799.197 672.703 802.877C668.039 806.745 665.203 811.714 664.289 817.528C663.516 822.357 664.055 828.967 665.461 832.179C666.867 835.414 685.149 852.831 706.102 870.905C727.055 889.001 774.516 929.86 811.571 961.741C852.657 997.091 880.43 1022.69 882.727 1027.33C884.789 1031.53 886.524 1038.63 886.547 1043.15C886.594 1047.68 885.563 1053.47 884.274 1056.05C882.985 1058.63 877.828 1062.68 872.813 1065.07C865.078 1068.75 862.149 1069.01 853.172 1066.81C846.141 1065.09 837.242 1059.73 826.477 1050.75C817.594 1043.34 807.563 1035.21 804.211 1032.65C800.836 1030.1 785.438 1017.44 769.969 1004.5C754.5 991.559 735.516 975.993 727.782 969.899C717.188 961.577 711.68 958.834 705.516 958.787C701.016 958.764 694.946 960.311 692.039 962.257C687.047 965.609 686.297 965.304 677.977 956.255C673.149 951.005 664.969 944.675 659.813 942.214C654.657 939.729 645.844 936.916 640.219 935.932C630.282 934.197 629.883 933.775 625.969 921.257C623.766 914.178 620.321 905.2 618.328 901.332C616.336 897.464 608.766 888.767 601.524 881.992C591.117 872.288 585 868.678 572.508 864.95C563.813 862.348 553.008 860.239 548.485 860.239C543.985 860.262 534.703 861.622 515.532 866.169L509.18 857.965C505.688 853.44 500.18 847.369 496.946 844.415C493.711 841.485 485.789 836.281 479.344 832.859C469.43 827.608 464.578 826.623 447.703 826.506C436.758 826.412 424.617 827.116 420.75 828.077C414.399 829.624 413.039 828.874 406.688 820.083C402.703 814.598 394.055 807.26 386.766 803.205C376.102 797.298 370.641 795.891 355.125 795.165C337.946 794.344 335.133 794.883 321.727 801.494C310.407 807.096 304.688 811.925 285.985 836.867L263.133 823.623C250.571 816.356 237.914 808.972 229.735 804.049L251.485 760.096C263.438 735.928 279.774 700.32 287.789 680.98C295.805 661.641 308.578 626.83 316.172 603.623C323.789 580.416 333.211 548.23 337.125 532.126C341.016 516.022 345.446 495.956 346.946 487.587C348.446 479.218 350.227 470.92 350.883 469.162C351.61 467.263 354.117 466.49 357.117 467.216V467.216ZM356.297 845.142C359.532 845.845 364.524 849.01 367.43 852.198C370.336 855.363 372.703 860.614 372.703 863.825C372.703 867.084 367.125 877.749 360.164 887.853C353.274 897.839 345.891 906.817 343.758 907.778C341.625 908.739 336.985 909.56 333.446 909.607C329.508 909.63 324.727 907.286 321.141 903.559C317.696 899.949 315.282 894.698 315.282 890.736C315.282 886.517 319.664 877.749 327.188 866.896C333.727 857.472 341.649 848.424 344.766 846.807C347.883 845.189 353.086 844.439 356.297 845.142V845.142ZM447.117 876.859C452.813 876.765 456.797 878.781 462.938 884.923C468.657 890.642 471.141 895.237 471.141 900.16C471.141 904.028 469.969 909.56 468.516 912.467C467.086 915.373 459.282 927.75 451.172 940.01C443.063 952.27 435 963.616 433.266 965.234C431.532 966.851 425.907 968.773 420.75 969.523C413.297 970.602 409.688 969.758 403.172 965.327C398.274 961.999 393.914 956.513 392.344 951.661C390.68 946.48 390.469 940.972 391.782 936.494C392.93 932.626 398.25 923.132 403.594 915.397C408.938 907.661 416.836 896.761 421.149 891.182C425.438 885.602 431.344 880.117 434.227 879.015C437.133 877.914 442.922 876.952 447.117 876.859V876.859ZM548.485 911.904C553.008 911.904 559.852 913.803 563.719 916.123C567.586 918.468 572.766 924.516 575.203 929.602C578.766 936.963 579.211 940.503 577.43 947.043C576.211 951.567 565.735 969.101 554.157 986.05C536.742 1011.53 531.492 1017.58 523.805 1020.93C517.758 1023.56 511.828 1024.47 506.883 1023.51C502.688 1022.71 496.664 1020.2 493.5 1017.95C490.336 1015.7 486.117 1009.89 484.125 1005.06C482.133 1000.23 481.196 993.903 482.016 990.996C482.86 988.089 491.016 974.493 500.18 960.78C509.344 947.066 518.696 932.556 520.946 928.547C523.196 924.539 528.469 919.147 532.664 916.569C536.86 914.014 543.985 911.904 548.485 911.904ZM627.141 984.55C630.375 984.55 635.93 987.62 639.891 991.582C643.946 995.637 646.922 1001.1 646.922 1004.47C646.922 1007.71 642.703 1016.66 637.547 1024.4C631.688 1033.21 626.532 1038.47 623.813 1038.47C621.399 1038.47 616.594 1041.37 613.102 1044.91C609.61 1048.45 606.211 1054.01 605.555 1057.22C604.875 1060.45 603.914 1064.39 603.375 1066.01C602.836 1067.63 599.766 1068.94 596.532 1068.94C593.157 1068.94 587.696 1065.96 583.641 1061.91C579.774 1058.04 576.586 1052.51 576.563 1049.6C576.516 1046.69 583.992 1033.24 593.133 1019.71C602.274 1006.19 612.375 992.731 615.586 989.824C618.797 986.917 624 984.55 627.141 984.55V984.55ZM698.485 1012.68C699.774 1012.68 716.907 1025.97 736.571 1042.19C757.242 1059.26 771.328 1072.48 769.969 1073.51C768.68 1074.52 763.946 1076.56 759.422 1078.03C754.899 1079.51 744.891 1080.73 737.157 1080.73C729.422 1080.71 717.282 1079 710.203 1076.91C703.125 1074.82 692.297 1070.58 686.18 1067.51C680.063 1064.42 675.047 1061.37 675.047 1060.73C675.047 1060.1 678.071 1055.09 681.75 1049.6C685.43 1044.11 690.188 1036.21 692.297 1032.02C694.406 1027.82 696.141 1021.77 696.141 1018.54C696.141 1015.33 697.196 1012.68 698.485 1012.68Z" fill="#FFB966"/>
</svg>
