<svg width="52" height="55" viewBox="0 0 52 55" fill="none" xmlns="http://www.w3.org/2000/svg">
<g clip-path="url(#clip0_19_170)">
<path d="M1.68595 46.1074H2.59963L2.95132 47.3944L3.3006 46.1074H4.21307V48.2229H3.64384V46.6092L3.20512 48.2229H2.69027L2.25277 46.6092V48.2229H1.68353V46.1074H1.68595Z" fill="#133020"/>
<path d="M4.86327 46.1074H5.5582V46.9074L6.28576 46.1074H7.20911L6.38849 46.9062L7.24536 48.224H6.38969L5.91594 47.3535L5.55699 47.7074V48.224H4.86206V46.1074H4.86327Z" fill="#133020"/>
<path d="M7.67804 46.1074H9.53924V46.5592H8.37418V46.8949H9.45464V47.3262H8.37418V47.7427H9.57308V48.2217H7.67804V46.1074Z" fill="#133020"/>
<path d="M43.1823 46.1074H44.2144C44.4174 46.1074 44.5818 46.1336 44.7075 46.1859C44.8332 46.2383 44.9359 46.3122 45.0181 46.4101C45.1003 46.5068 45.1595 46.6206 45.1957 46.7492C45.232 46.8778 45.2513 47.0144 45.2513 47.1589C45.2513 47.3853 45.2235 47.5606 45.1691 47.6846C45.1148 47.8098 45.0386 47.9134 44.9419 47.9976C44.8452 48.0818 44.7401 48.1375 44.6289 48.166C44.4766 48.2047 44.3389 48.224 44.2144 48.224H43.1823V46.1074ZM43.876 46.5865V47.7427H44.0464C44.1914 47.7427 44.2941 47.7279 44.3558 47.6971C44.4174 47.6664 44.4645 47.6141 44.4996 47.539C44.5346 47.4639 44.5516 47.341 44.5516 47.1714C44.5516 46.9472 44.5129 46.7936 44.4355 46.7105C44.3582 46.6274 44.2289 46.5865 44.0488 46.5865H43.876Z" fill="#133020"/>
<path d="M45.6973 47.523L46.3584 47.4843C46.3729 47.5856 46.4019 47.663 46.4454 47.7153C46.5167 47.8007 46.6194 47.8439 46.7523 47.8439C46.8515 47.8439 46.9276 47.8223 46.982 47.7779C47.0352 47.7347 47.063 47.6835 47.063 47.6254C47.063 47.5708 47.0376 47.5219 46.9868 47.4786C46.9361 47.4354 46.8176 47.3944 46.6315 47.3557C46.3269 47.2909 46.1094 47.2055 45.9801 47.0986C45.8495 46.9916 45.7843 46.855 45.7843 46.69C45.7843 46.5808 45.8181 46.4784 45.8846 46.3816C45.9511 46.2849 46.0526 46.2087 46.1867 46.154C46.3209 46.0983 46.5058 46.071 46.7391 46.071C47.0267 46.071 47.2454 46.121 47.3965 46.2223C47.5476 46.3225 47.637 46.4829 47.666 46.7025L47.011 46.739C46.9941 46.6434 46.9566 46.574 46.901 46.5307C46.8454 46.4875 46.7681 46.4658 46.6702 46.4658C46.5892 46.4658 46.5288 46.4818 46.4877 46.5148C46.4466 46.5466 46.426 46.5865 46.426 46.632C46.426 46.6661 46.443 46.6957 46.4768 46.723C46.5094 46.7515 46.5868 46.7765 46.71 46.8015C47.0134 46.863 47.2309 46.9256 47.3627 46.9882C47.4944 47.0508 47.5899 47.1293 47.6491 47.2226C47.7083 47.3159 47.7385 47.4206 47.7385 47.5355C47.7385 47.671 47.6987 47.7961 47.6189 47.9111C47.5391 48.026 47.4279 48.1125 47.2841 48.1717C47.1415 48.2308 46.9602 48.2604 46.7427 48.2604C46.3608 48.2604 46.0961 48.191 45.9487 48.0522C45.8 47.9122 45.7166 47.737 45.6973 47.523Z" fill="#133020"/>
<path d="M49.6711 47.8735H48.8831L48.7732 48.2229H48.0637L48.9085 46.1074H49.6663L50.5111 48.2229H49.7835L49.6711 47.8735ZM49.5273 47.4161L49.2795 46.6559L49.0342 47.4161H49.5273Z" fill="#133020"/>
<path d="M43.9594 24.1797C43.8554 19.9317 42.0353 15.8486 38.8858 12.8045C35.364 9.39854 30.6155 7.58006 25.5879 7.69158C15.8432 7.90779 7.98865 15.5561 8.07809 24.7407C8.12885 29.9311 10.6584 34.7379 15.0177 37.9287C18.1612 40.2297 19.9644 43.63 19.9644 47.2579C19.9644 47.9372 20.5493 48.488 21.2709 48.488H30.7702C31.4917 48.488 32.0767 47.9372 32.0767 47.2579V47.2567C32.0767 43.6459 33.8847 40.1888 36.9122 38.0095C41.5072 34.7014 44.0923 29.6409 43.9594 24.1797ZM35.6166 36.4164C33.7361 37.7706 32.2592 39.5458 31.2851 41.5441C31.0941 41.9344 30.4778 41.8275 30.4463 41.3984L29.8747 37.5327H29.152V36.8522H22.8879V37.5327H22.1664L21.5935 41.403C21.5621 41.832 20.9457 41.9401 20.7536 41.5498C19.7698 39.5526 18.2688 37.766 16.3266 36.3435C12.4833 33.5316 10.2547 29.2949 10.21 24.7214C10.1315 16.6281 17.0529 9.88787 25.6398 9.69783C29.9206 9.60338 33.9729 11.0964 37.0403 13.9038C40.0061 16.6179 41.7368 20.3436 41.8299 24.2366C41.9435 29.0446 39.6653 33.502 35.6166 36.4164Z" fill="#FFB966"/>
<path d="M31.2273 51.3876C31.226 51.3876 31.226 51.3876 31.2247 51.3889C31.226 51.3876 31.2273 51.3876 31.2273 51.3876Z" fill="#FFB966"/>
<path d="M32.0767 50.4055C32.0767 49.8513 31.5993 49.4018 31.0108 49.4018H21.0304C20.4418 49.4018 19.9644 49.8513 19.9644 50.4055C19.9644 50.9597 20.4418 51.4092 21.0304 51.4092H31.0108C31.0845 51.4092 31.1558 51.4024 31.2247 51.3887C31.2259 51.3887 31.2259 51.3887 31.2271 51.3876C31.7117 51.2931 32.0767 50.8892 32.0767 50.4055Z" fill="#FFB966"/>
<path d="M30.5841 52.323H21.457C20.8684 52.323 20.391 52.7725 20.391 53.3267C20.391 53.8809 20.8684 54.3304 21.457 54.3304H30.5841C31.1727 54.3304 31.65 53.8809 31.65 53.3267C31.65 52.7725 31.1727 52.323 30.5841 52.323Z" fill="#FFB966"/>
<path d="M9.47156 37.6659L8.1107 36.0659L7.68287 36.3891L7.34568 35.9919L4.91041 37.8263L5.2476 38.2235L4.82581 38.541L7.11726 41.2357L12.1002 37.4792L11.1696 36.3845L9.47156 37.6659ZM8.73674 38.2189L6.92147 39.5868L6.14919 38.6775L7.96447 37.3097L8.73674 38.2189Z" fill="#FF4715"/>
<path d="M8.23038 33.3541L8.73677 33.1549L7.32637 29.9766L6.81998 30.1757L6.60848 29.6989L1.72222 31.6221L1.93372 32.0989L1.43579 32.2946L2.84619 35.473L3.34413 35.2773L3.55563 35.7541L8.44188 33.8309L8.23038 33.3541ZM7.50645 32.6793L3.35138 34.3145L2.66612 32.7714L6.82119 31.1362L7.50645 32.6793Z" fill="#FF4715"/>
<path d="M5.6259 28.2639L6.16492 28.2366L6.13592 27.7291L6.68461 27.7018L6.60484 26.3009L6.05736 26.3294L6.02836 25.8207L5.48933 25.848L5.45187 25.1937L5.9921 25.1664L5.96309 24.6588L6.51057 24.6315L6.43081 23.2307L5.88333 23.2591L5.85432 22.7504L5.3153 22.7777L5.28629 22.2622L0 22.5274L0.0785571 23.9271L4.427 23.7097L4.456 24.2173L4.99382 24.19L5.00228 24.3288L4.46325 24.3561L4.49226 24.8716L1.77056 25.0082L1.84911 26.3999L4.57082 26.2634L4.59982 26.78L5.13885 26.7527L5.14731 26.8915L4.60828 26.9188L4.63729 27.4264L0.288849 27.6437L0.368614 29.0446L5.65491 28.7794L5.6259 28.2639Z" fill="#FF4715"/>
<path d="M7.67807 18.0494L6.77043 17.8184L6.2024 19.7962L4.47898 19.357L4.90561 17.8776L3.99797 17.6466L3.57255 19.126L1.85759 18.689L2.42683 16.7112L1.51919 16.479L0.560791 19.811L6.72088 21.3803L7.67807 18.0494Z" fill="#FF4715"/>
<path d="M8.74883 15.9601L6.39816 14.6617L7.0242 13.658L9.37487 14.9564L10.4009 13.3086L9.58999 12.8603L9.31202 13.3064L7.43511 12.2697L7.16197 12.7078L7.03387 12.6372L7.307 12.1991L5.08444 10.9701L4.8113 11.4082L4.346 11.151L2.49084 14.128L7.99589 17.1686L8.74883 15.9601ZM4.05595 13.3667L4.68199 12.3618L6.21445 13.2085L5.58841 14.2133L4.05595 13.3667Z" fill="#FF4715"/>
<path d="M13.5529 4.02503L13.0078 3.30469L9.14282 5.89814L9.6891 6.61961L11.0149 5.72971L14.1741 9.90154L15.3863 9.08788L12.2271 4.91606L13.5529 4.02503Z" fill="#FF4715"/>
<path d="M19.5849 1.27794L19.07 1.45547L18.8839 0.978653L15.4504 2.16556L15.6365 2.64237L15.1216 2.8199L16.9478 7.49926L17.4626 7.32173L17.6512 7.80651L21.0847 6.6196L20.8962 6.13482L21.411 5.9573L19.5849 1.27794ZM18.3256 2.11435L19.8786 6.09386L18.2108 6.67081L16.6577 2.69131L18.3256 2.11435Z" fill="#FF4715"/>
<path d="M30.392 0.337979L25.6592 0L25.5879 0.88307L27.2122 0.999143L26.8001 6.1098L28.2854 6.21677L28.6975 1.10498L30.3207 1.22105L30.392 0.337979Z" fill="#FF4715"/>
<path d="M35.1585 1.62162L34.2932 4.04665L32.6084 3.51407L33.475 1.08905L32.0634 0.64296L30.0294 6.33967L31.441 6.78576L32.3099 4.3539L33.9935 4.88647L33.1245 7.31947L34.5361 7.76555L36.5701 2.06884L35.1585 1.62162Z" fill="#FF4715"/>
<path d="M39.4865 7.74621L40.011 7.01222L38.661 6.15532L39.652 4.76813L41.4589 5.91293L41.9834 5.17894L38.9426 3.25121L35.3773 8.23668L38.4193 10.1644L38.9438 9.42928L37.1382 8.28448L38.1353 6.89045L39.4865 7.74621Z" fill="#FF4715"/>
<path d="M41.8818 13.7251L43.6862 12.5781L44.9045 14.2771L45.3589 13.988L45.661 14.4091L48.245 12.7658L47.9428 12.3448L48.39 12.0603L46.3378 9.1994L41.0479 12.5633L41.8818 13.7251ZM44.4658 12.0819L46.3922 10.8563L47.0847 11.8213L45.1583 13.0469L44.4658 12.0819Z" fill="#FF4715"/>
<path d="M45.0459 19.9499L45.933 19.6551L45.2054 17.7228L46.8877 17.1618L47.4316 18.6071L48.3175 18.3112L47.7736 16.866L49.4475 16.3072L50.1751 18.2395L51.0609 17.9436L49.8367 14.6901L43.8216 16.6975L45.0459 19.9499Z" fill="#FF4715"/>
<path d="M45.9064 21.3166L45.3589 21.3553L45.6332 24.7897L46.1807 24.751L46.2218 25.2665L51.5021 24.8921L51.461 24.3766L52 24.339L51.7256 20.9046L51.1866 20.9422L51.1455 20.4267L45.8653 20.8011L45.9064 21.3166ZM46.368 22.1712L50.8579 21.8526L50.9908 23.5208L46.501 23.8395L46.368 22.1712Z" fill="#FF4715"/>
<path d="M45.2864 27.5868L47.4207 27.9908L46.9917 30.0005L47.5295 30.1029L47.4231 30.6013L50.4796 31.1794L50.586 30.681L51.1153 30.7811L51.838 27.3968L45.5813 26.2121L45.2864 27.5868ZM50.6222 28.5973L50.3781 29.7387L48.0987 29.3074L48.3429 28.166L50.6222 28.5973Z" fill="#FF4715"/>
<path d="M42.7955 34.0778L43.6415 34.4659L44.5951 32.6224L49.4886 34.8687L50.1412 33.6079L44.4029 30.9746L42.7955 34.0778Z" fill="#FF4715"/>
<path d="M39.895 37.5259L40.6165 38.0938L42.0112 36.5211L43.3805 37.5987L42.3375 38.7754L43.059 39.3421L44.102 38.1655L45.4653 39.2374L44.0706 40.8101L44.7921 41.378L47.1416 38.7299L42.2444 34.8778L39.895 37.5259Z" fill="#FF4715"/>
<path d="M38.2126 47.6254L40.3361 48.793C40.3881 48.8215 40.4231 48.8704 40.4316 48.9262C40.44 48.9819 40.4219 49.0388 40.3808 49.0798L35.2758 54.269C35.2081 54.3384 35.0957 54.3486 35.0148 54.2929C34.9338 54.2371 34.9096 54.1335 34.958 54.0516L37.5431 49.6932L35.4196 48.5256C35.3677 48.4971 35.3326 48.4482 35.3242 48.3924C35.3157 48.3367 35.3338 48.2798 35.3749 48.2388L40.4799 43.0496C40.5476 42.9802 40.66 42.97 40.741 43.0257C40.7494 43.0314 40.7579 43.0383 40.7651 43.0451C40.8268 43.1031 40.8413 43.1942 40.7978 43.2681L38.2126 47.6254Z" fill="#FF4715"/>
<path d="M13.7874 47.6254L11.6639 48.793C11.612 48.8215 11.5769 48.8704 11.5685 48.9262C11.56 48.9819 11.5781 49.0388 11.6192 49.0798L16.7242 54.269C16.7919 54.3384 16.9043 54.3486 16.9853 54.2929C17.0663 54.2371 17.0904 54.1335 17.0421 54.0516L14.4569 49.6932L16.5804 48.5256C16.6324 48.4971 16.6674 48.4482 16.6759 48.3924C16.6843 48.3367 16.6662 48.2798 16.6251 48.2388L11.5201 43.0496C11.4524 42.9802 11.34 42.97 11.2591 43.0257C11.2506 43.0314 11.2421 43.0383 11.2349 43.0451C11.1733 43.1031 11.1588 43.1942 11.2023 43.2681L13.7874 47.6254Z" fill="#FF4715"/>
<path d="M23.294 16.7248H22.3791V15.8634H20.5493V16.7248H19.6345V21.3405H23.294V16.7248Z" fill="#FF4715"/>
<path d="M29.1882 26.541H31.018V25.6796H31.9329V16.7248H31.018V15.8634H29.1882V16.7248H28.2733V25.6796H29.1882V26.541Z" fill="#FF4715"/>
<path d="M35.3362 16.9581H33.5064V17.8196H32.5916V24.2355H33.5064V25.0969H35.3362V24.2355H36.2511V17.8196H35.3362V16.9581Z" fill="#FF4715"/>
<path d="M24.8687 27.8338H26.6985V26.9723H27.6134V15.7086H26.6985V14.8472H24.8687V15.7086H23.9539V26.9723H24.8687V27.8338Z" fill="#FF4715"/>
<path d="M35.3338 26.2053H33.5065V25.6511H32.5916V27.1362H31.018V27.7268H29.1882V27.1362H28.2733V28.4551H26.6986V29.0764H24.8688V28.4551H23.294V27.267H19.6345V25.4053H20.5494V26.0267H22.3791V25.1652H23.294V22.8005H22.3791V21.939H16.8898V22.8005H15.9749V32.6292L18.5854 35.0861H33.1838L35.7943 32.6292V25.6511H35.3338V26.2053Z" fill="#FF4715"/>
</g>
<defs>
<clipPath id="clip0_19_170">
<rect width="52" height="55" fill="white"/>
</clipPath>
</defs>
</svg>
